<?xml version="1.0" encoding="utf-8"?>
<!-- Generator: Adobe Illustrator 26.3.1, SVG Export Plug-In . SVG Version: 6.00 Build 0)  -->
<svg version="1.1" id="pbc-logo" xmlns="http://www.w3.org/2000/svg" xmlns:xlink="http://www.w3.org/1999/xlink" x="0px" y="0px"
	 viewBox="0 0 250 250" style="enable-background:new 0 0 250 250;" xml:space="preserve">
<style type="text/css">
	.st0{clip-path:url(#SVGID_00000112603223787279394620000016186027011467504782_);fill:#231F20;}
</style>
<g>
	<defs>
		<rect id="SVGID_1_" x="-13" y="-14" width="276" height="278"/>
	</defs>
	<clipPath id="SVGID_00000070119622977662361900000003215224476693525911_">
		<use xlink:href="#SVGID_1_"  style="overflow:visible;"/>
	</clipPath>
	<path style="clip-path:url(#SVGID_00000070119622977662361900000003215224476693525911_);fill:#231F20;" d="M148.6,151.1
		c-2.9,1.6-6.9,2.1-11.7,2.1h-16.2v18.1h20.7c8.7,0,16-2.2,21.4-6.1L148.6,151.1z M165.5,126.3c-4.2,4-9.9,6.8-16.7,8.2
		c2.9,1.6,4.7,4.2,4.7,8c0,2.8-0.6,4.9-2.1,6.3l14.1,14.1c5-4.6,7.8-11.1,7.8-18.8C173.3,137.3,171,131.5,165.5,126.3"/>
	<path style="clip-path:url(#SVGID_00000070119622977662361900000003215224476693525911_);fill:#231F20;" d="M164,87l-14.3,14.3
		c0.9,1.3,1.3,2.9,1.3,5c0,6.2-4.6,9.5-15.3,9.5H97.4v55.4H117v-38.9h20.2c10.3,0,19.4-2.7,25.5-8.2c5.1-4.6,8.2-11.2,8.2-19.7
		C170.9,96.9,168.4,91.1,164,87 M138.9,78.7H97.4v33.7H117V96.8h18c5.6,0,9.5,0.5,12.1,2.1l14.3-14.3
		C155.7,80.7,148.1,78.7,138.9,78.7"/>
	<path style="clip-path:url(#SVGID_00000070119622977662361900000003215224476693525911_);fill:#231F20;" d="M185.4,186.6
		c-13.9,11.6-31.8,18.6-51.3,18.6c-41.8,0-76.2-32.1-79.9-72.9H34.9c3.7,51.5,46.8,92.2,99.2,92.2c24.8,0,47.5-9.1,65-24.2
		L185.4,186.6z M134.1,25.5c-51.8,0-94.5,39.8-99.1,90.4h19.4C59,76,93,44.8,134.1,44.8c18.8,0,36.1,6.5,49.8,17.4l13.7-13.7
		C180.4,34.1,158.2,25.5,134.1,25.5"/>
</g>
</svg>
