<?xml version="1.0" encoding="utf-8"?>
<!-- Generator: Adobe Illustrator 26.3.1, SVG Export Plug-In . SVG Version: 6.00 Build 0)  -->
<svg version="1.1" id="pbc-logo" xmlns="http://www.w3.org/2000/svg" xmlns:xlink="http://www.w3.org/1999/xlink" x="0px" y="0px"
	 viewBox="0 0 198 240" style="enable-background:new 0 0 198 240;" xml:space="preserve">
<style type="text/css">
	.st0{fill:#231F20;}
</style>
<g id="B">
	<path id="b-low-l" class="st0" d="M137.1,151.4c-3.5,1.9-8.3,2.5-14.2,2.5h-19.6v21.8h25c10.5,0,19.3-2.7,25.8-7.3L137.1,151.4z"/>
	<path id="b-low-r" class="st0" d="M157.5,121.5c-5.1,4.8-11.9,8.2-20.1,9.9c3.5,1.9,5.6,5,5.6,9.6c0,3.3-0.8,5.9-2.5,7.6l17,17.1
		c6.1-5.6,9.4-13.4,9.4-22.6C166.9,134.9,164.2,127.8,157.5,121.5"/>
	<path id="b-mid" class="st0" d="M155.8,74.2l-17.2,17.2c1.1,1.6,1.6,3.5,1.6,6.1c0,7.5-5.6,11.5-18.5,11.5H75.3v66.9h23.7v-47h24.4
		c12.4,0,23.4-3.3,30.8-9.9c6.2-5.6,9.8-13.5,9.8-23.8C164,86.2,161,79.2,155.8,74.2"/>
	<path id="b-top" class="st0" d="M125.5,64.2H75.3v40.6h23.7V86h21.7c6.7,0,11.5,0.6,14.6,2.5l17.2-17.2
		C145.7,66.6,136.5,64.2,125.5,64.2"/>
</g>
<g id="C">
	<path id="c-bottom" class="st0" d="M181.5,194.3c-16.8,14-38.3,22.4-61.8,22.4c-50.4,0-91.9-38.7-96.3-87.9H0
		C4.5,190.9,56.5,240,119.7,240c29.9,0,57.3-11,78.4-29.2L181.5,194.3z"/>
	<path id="c-top" class="st0" d="M119.7,0C57.2,0,5.7,48,0.2,109.1h23.4C29,60.9,70,23.3,119.7,23.3c22.7,0,43.6,7.9,60.1,21
		l16.6-16.5C175.5,10.4,148.8,0,119.7,0"/>
</g>
</svg>
