<svg id="Layer_1" data-name="Layer 1" xmlns="http://www.w3.org/2000/svg" viewBox="0 0 250 250"><defs><style>.cls-1{fill:#231f20;}</style></defs><path class="cls-1" d="M148.59,151.06c-2.89,1.58-6.86,2.11-11.75,2.11H120.61v18.08h20.72c8.72,0,16-2.25,21.38-6.07Zm16.9-24.79a34.36,34.36,0,0,1-16.67,8.21,8.46,8.46,0,0,1,4.65,8c0,2.78-.65,4.89-2.1,6.33l14.12,14.14c5-4.62,7.79-11.1,7.79-18.75a23.23,23.23,0,0,0-7.79-17.92"/><path class="cls-1" d="M164,87.05,149.78,101.3a8.41,8.41,0,0,1,1.31,5c0,6.21-4.62,9.5-15.3,9.5H97.37v55.44H117V132.32h20.2c10.31,0,19.39-2.71,25.5-8.24,5.12-4.6,8.16-11.18,8.16-19.74,0-7.39-2.51-13.21-6.86-17.29M139,78.74H97.37V112.4H117V96.81h18c5.55,0,9.5.54,12.14,2.12L161.4,84.67c-5.69-4-13.35-5.93-22.45-5.93"/><path class="cls-1" d="M185.39,186.63A80.16,80.16,0,0,1,54.26,132.32H34.91a99.45,99.45,0,0,0,164.18,68ZM134.12,25.51a99.6,99.6,0,0,0-99.07,90.42H54.44A80.15,80.15,0,0,1,183.92,62.18l13.73-13.71a99.11,99.11,0,0,0-63.53-23"/></svg>